<?xml version="1.0" encoding="us-ascii" standalone="no"?><svg xmlns="http://www.w3.org/2000/svg" xmlns:xlink="http://www.w3.org/1999/xlink" contentStyleType="text/css" height="1442px" preserveAspectRatio="none" style="width:1344px;height:1442px;background:#FEFEFE;" version="1.1" viewBox="0 0 1344 1442" width="1344px" zoomAndPan="magnify"><defs/><g><rect fill="#FEFEFE" height="1442" style="stroke:none;stroke-width:1.0;" width="1344" x="0" y="0"/><text fill="#000000" font-family="Verdana" font-size="22" font-weight="bold" lengthAdjust="spacing" textLength="324" x="508.75" y="37.1182">PlantUML &#22270;&#29255;&#36820;&#22238;&#27969;&#31243;&#26550;&#26500;&#22270;</text><rect fill="#FFFFFF" height="507.187" style="stroke:#000000;stroke-width:1.0;" width="10" x="382.5" y="237.9492"/><rect fill="#FFFFFF" height="298.7925" style="stroke:#000000;stroke-width:1.0;" width="10" x="613.5" y="342.1465"/><rect fill="#FFFFFF" height="282.9932" style="stroke:#000000;stroke-width:1.0;" width="10" x="613.5" y="834.5342"/><rect fill="#FFFFFF" height="191.7959" style="stroke:#000000;stroke-width:1.0;" width="10" x="885.5" y="371.9458"/><rect fill="#FFFFFF" height="119.1973" style="stroke:#000000;stroke-width:1.0;" width="10" x="885.5" y="864.3335"/><rect fill="#FFFFFF" height="59.5986" style="stroke:#000000;stroke-width:1.0;" width="10" x="1145.5" y="401.7451"/><rect fill="#FFFFFF" height="59.5986" style="stroke:#000000;stroke-width:1.0;" width="10" x="1145.5" y="894.1328"/><line style="stroke:#000000;stroke-width:1.0;" x1="58" x2="58" y1="130.752" y2="1360.9185"/><line style="stroke:#000000;stroke-width:1.0;" x1="387" x2="387" y1="130.752" y2="1360.9185"/><line style="stroke:#000000;stroke-width:1.0;" x1="618.5" x2="618.5" y1="130.752" y2="1360.9185"/><line style="stroke:#000000;stroke-width:1.0;" x1="890" x2="890" y1="130.752" y2="1360.9185"/><line style="stroke:#000000;stroke-width:1.0;" x1="1150" x2="1150" y1="130.752" y2="1360.9185"/><line style="stroke:#000000;stroke-width:1.0;" x1="1301.5" x2="1301.5" y1="130.752" y2="1360.9185"/><text fill="#000000" font-family="Verdana" font-size="14" lengthAdjust="spacing" textLength="91" x="10" y="127.8125">AI&#20195;&#29702;/&#23458;&#25143;&#31471;</text><ellipse cx="58.5" cy="61.7373" fill="#FFFFFF" rx="8" ry="8" style="stroke:#000000;stroke-width:1.0;"/><path d="M58.5,69.7373 L58.5,96.7373 M45.5,77.7373 L71.5,77.7373 M58.5,96.7373 L45.5,111.7373 M58.5,96.7373 L71.5,111.7373 " fill="none" style="stroke:#000000;stroke-width:1.0;"/><text fill="#000000" font-family="Verdana" font-size="14" lengthAdjust="spacing" textLength="91" x="10" y="1373.9937">AI&#20195;&#29702;/&#23458;&#25143;&#31471;</text><ellipse cx="58.5" cy="1385.9331" fill="#FFFFFF" rx="8" ry="8" style="stroke:#000000;stroke-width:1.0;"/><path d="M58.5,1393.9331 L58.5,1420.9331 M45.5,1401.9331 L71.5,1401.9331 M58.5,1420.9331 L45.5,1435.9331 M58.5,1420.9331 L71.5,1435.9331 " fill="none" style="stroke:#000000;stroke-width:1.0;"/><rect fill="#FFFFFF" height="31.0146" rx="2.5" ry="2.5" style="stroke:#000000;stroke-width:1.0;" width="85" x="345" y="98.7373"/><text fill="#000000" font-family="Verdana" font-size="14" lengthAdjust="spacing" textLength="71" x="352" y="119.8125">MCP&#26381;&#21153;&#22120;</text><rect fill="#FFFFFF" height="31.0146" rx="2.5" ry="2.5" style="stroke:#000000;stroke-width:1.0;" width="85" x="345" y="1359.9185"/><text fill="#000000" font-family="Verdana" font-size="14" lengthAdjust="spacing" textLength="71" x="352" y="1380.9937">MCP&#26381;&#21153;&#22120;</text><rect fill="#FFFFFF" height="31.0146" rx="2.5" ry="2.5" style="stroke:#000000;stroke-width:1.0;" width="146" x="545.5" y="98.7373"/><text fill="#000000" font-family="Verdana" font-size="14" lengthAdjust="spacing" textLength="132" x="552.5" y="119.8125">PlantUML HTTP API</text><rect fill="#FFFFFF" height="31.0146" rx="2.5" ry="2.5" style="stroke:#000000;stroke-width:1.0;" width="146" x="545.5" y="1359.9185"/><text fill="#000000" font-family="Verdana" font-size="14" lengthAdjust="spacing" textLength="132" x="552.5" y="1380.9937">PlantUML HTTP API</text><rect fill="#FFFFFF" height="31.0146" rx="2.5" ry="2.5" style="stroke:#000000;stroke-width:1.0;" width="119" x="831" y="98.7373"/><text fill="#000000" font-family="Verdana" font-size="14" lengthAdjust="spacing" textLength="105" x="838" y="119.8125">PlantUML&#26381;&#21153;&#23618;</text><rect fill="#FFFFFF" height="31.0146" rx="2.5" ry="2.5" style="stroke:#000000;stroke-width:1.0;" width="119" x="831" y="1359.9185"/><text fill="#000000" font-family="Verdana" font-size="14" lengthAdjust="spacing" textLength="105" x="838" y="1380.9937">PlantUML&#26381;&#21153;&#23618;</text><rect fill="#FFFFFF" height="31.0146" rx="2.5" ry="2.5" style="stroke:#000000;stroke-width:1.0;" width="105" x="1098" y="98.7373"/><text fill="#000000" font-family="Verdana" font-size="14" lengthAdjust="spacing" textLength="91" x="1105" y="119.8125">PlantUML&#24341;&#25806;</text><rect fill="#FFFFFF" height="31.0146" rx="2.5" ry="2.5" style="stroke:#000000;stroke-width:1.0;" width="105" x="1098" y="1359.9185"/><text fill="#000000" font-family="Verdana" font-size="14" lengthAdjust="spacing" textLength="91" x="1105" y="1380.9937">PlantUML&#24341;&#25806;</text><text fill="#000000" font-family="Verdana" font-size="14" lengthAdjust="spacing" textLength="56" x="1270.5" y="127.8125">&#22270;&#29255;&#36755;&#20986;</text><path d="M1283.5,77.7373 C1283.5,67.7373 1301.5,67.7373 1301.5,67.7373 C1301.5,67.7373 1319.5,67.7373 1319.5,77.7373 L1319.5,103.7373 C1319.5,113.7373 1301.5,113.7373 1301.5,113.7373 C1301.5,113.7373 1283.5,113.7373 1283.5,103.7373 L1283.5,77.7373 " fill="#FFFFFF" style="stroke:#000000;stroke-width:1.5;"/><path d="M1283.5,77.7373 C1283.5,87.7373 1301.5,87.7373 1301.5,87.7373 C1301.5,87.7373 1319.5,87.7373 1319.5,77.7373 " fill="none" style="stroke:#000000;stroke-width:1.5;"/><text fill="#000000" font-family="Verdana" font-size="14" lengthAdjust="spacing" textLength="56" x="1270.5" y="1373.9937">&#22270;&#29255;&#36755;&#20986;</text><path d="M1283.5,1386.9331 C1283.5,1376.9331 1301.5,1376.9331 1301.5,1376.9331 C1301.5,1376.9331 1319.5,1376.9331 1319.5,1386.9331 L1319.5,1412.9331 C1319.5,1422.9331 1301.5,1422.9331 1301.5,1422.9331 C1301.5,1422.9331 1283.5,1422.9331 1283.5,1412.9331 L1283.5,1386.9331 " fill="#FFFFFF" style="stroke:#000000;stroke-width:1.5;"/><path d="M1283.5,1386.9331 C1283.5,1396.9331 1301.5,1396.9331 1301.5,1396.9331 C1301.5,1396.9331 1319.5,1396.9331 1319.5,1386.9331 " fill="none" style="stroke:#000000;stroke-width:1.5;"/><rect fill="#FFFFFF" height="507.187" style="stroke:#000000;stroke-width:1.0;" width="10" x="382.5" y="237.9492"/><rect fill="#FFFFFF" height="298.7925" style="stroke:#000000;stroke-width:1.0;" width="10" x="613.5" y="342.1465"/><rect fill="#FFFFFF" height="282.9932" style="stroke:#000000;stroke-width:1.0;" width="10" x="613.5" y="834.5342"/><rect fill="#FFFFFF" height="191.7959" style="stroke:#000000;stroke-width:1.0;" width="10" x="885.5" y="371.9458"/><rect fill="#FFFFFF" height="119.1973" style="stroke:#000000;stroke-width:1.0;" width="10" x="885.5" y="864.3335"/><rect fill="#FFFFFF" height="59.5986" style="stroke:#000000;stroke-width:1.0;" width="10" x="1145.5" y="401.7451"/><rect fill="#FFFFFF" height="59.5986" style="stroke:#000000;stroke-width:1.0;" width="10" x="1145.5" y="894.1328"/><rect fill="#FFFFFF" height="3" style="stroke:#FFFFFF;stroke-width:1.0;" width="1332.5" x="5" y="161.6516"/><line style="stroke:#000000;stroke-width:0.5;" x1="5" x2="1337.5" y1="161.6516" y2="161.6516"/><line style="stroke:#000000;stroke-width:0.5;" x1="5" x2="1337.5" y1="164.6516" y2="164.6516"/><rect fill="#FFFFFF" height="23.7993" style="stroke:#000000;stroke-width:1.0;" width="194" x="574.25" y="150.752"/><text fill="#000000" font-family="Verdana" font-size="13" font-weight="bold" lengthAdjust="spacing" textLength="176" x="580.25" y="167.8218">&#26041;&#24335;&#19968;&#65306;Base64 JSON API</text><polygon fill="#000000" points="370.5,233.9492,380.5,237.9492,370.5,241.9492,374.5,237.9492" style="stroke:#000000;stroke-width:1.0;"/><line style="stroke:#000000;stroke-width:1.0;" x1="58.5" x2="376.5" y1="237.9492" y2="237.9492"/><text fill="#000000" font-family="Verdana" font-size="13" lengthAdjust="spacing" textLength="80" x="65.5" y="201.6211">MCP&#24037;&#20855;&#35843;&#29992;</text><text fill="#000000" font-family="Verdana" font-size="13" lengthAdjust="spacing" textLength="200" x="65.5" y="217.4204">{"name": "plantuml-generate",</text><text fill="#000000" font-family="Verdana" font-size="13" lengthAdjust="spacing" textLength="300" x="70.5" y="233.2197">"arguments": {"code": "...", "format": "png"}}</text><line style="stroke:#000000;stroke-width:1.0;" x1="392.5" x2="434.5" y1="283.5479" y2="283.5479"/><line style="stroke:#000000;stroke-width:1.0;" x1="434.5" x2="434.5" y1="283.5479" y2="296.5479"/><line style="stroke:#000000;stroke-width:1.0;" x1="393.5" x2="434.5" y1="296.5479" y2="296.5479"/><polygon fill="#000000" points="403.5,292.5479,393.5,296.5479,403.5,300.5479,399.5,296.5479" style="stroke:#000000;stroke-width:1.0;"/><text fill="#000000" font-family="Verdana" font-size="13" lengthAdjust="spacing" textLength="52" x="399.5" y="263.019">&#21442;&#25968;&#39564;&#35777;</text><text fill="#000000" font-family="Verdana" font-size="13" lengthAdjust="spacing" textLength="93" x="399.5" y="278.8184">(AJV Schema)</text><polygon fill="#000000" points="601.5,338.1465,611.5,342.1465,601.5,346.1465,605.5,342.1465" style="stroke:#000000;stroke-width:1.0;"/><line style="stroke:#000000;stroke-width:1.0;" x1="392.5" x2="607.5" y1="342.1465" y2="342.1465"/><text fill="#000000" font-family="Verdana" font-size="13" lengthAdjust="spacing" textLength="192" x="399.5" y="321.6177">POST /api/plantuml/generate</text><text fill="#000000" font-family="Verdana" font-size="13" lengthAdjust="spacing" textLength="202" x="399.5" y="337.417">{"code": "...", "format": "png"}</text><polygon fill="#000000" points="873.5,367.9458,883.5,371.9458,873.5,375.9458,877.5,371.9458" style="stroke:#000000;stroke-width:1.0;"/><line style="stroke:#000000;stroke-width:1.0;" x1="623.5" x2="879.5" y1="371.9458" y2="371.9458"/><text fill="#000000" font-family="Verdana" font-size="13" lengthAdjust="spacing" textLength="243" x="630.5" y="367.2163">generateBase64Image(code, format)</text><polygon fill="#000000" points="1133.5,397.7451,1143.5,401.7451,1133.5,405.7451,1137.5,401.7451" style="stroke:#000000;stroke-width:1.0;"/><line style="stroke:#000000;stroke-width:1.0;" x1="895.5" x2="1139.5" y1="401.7451" y2="401.7451"/><text fill="#000000" font-family="Verdana" font-size="13" lengthAdjust="spacing" textLength="231" x="902.5" y="397.0156">SourceStringReader.outputImage()</text><polygon fill="#000000" points="1289.5,427.5444,1299.5,431.5444,1289.5,435.5444,1293.5,431.5444" style="stroke:#000000;stroke-width:1.0;"/><line style="stroke:#000000;stroke-width:1.0;" x1="1155.5" x2="1295.5" y1="431.5444" y2="431.5444"/><text fill="#000000" font-family="Verdana" font-size="13" lengthAdjust="spacing" textLength="117" x="1162.5" y="426.8149">&#29983;&#25104;&#20108;&#36827;&#21046;&#22270;&#29255;&#25968;&#25454;</text><polygon fill="#000000" points="1161.5,457.3438,1151.5,461.3438,1161.5,465.3438,1157.5,461.3438" style="stroke:#000000;stroke-width:1.0;"/><line style="stroke:#000000;stroke-width:1.0;stroke-dasharray:2.0,2.0;" x1="1155.5" x2="1300.5" y1="461.3438" y2="461.3438"/><text fill="#000000" font-family="Verdana" font-size="13" lengthAdjust="spacing" textLength="122" x="1167.5" y="456.6143">byte[] imageBytes</text><polygon fill="#000000" points="906.5,487.1431,896.5,491.1431,906.5,495.1431,902.5,491.1431" style="stroke:#000000;stroke-width:1.0;"/><line style="stroke:#000000;stroke-width:1.0;stroke-dasharray:2.0,2.0;" x1="900.5" x2="1149.5" y1="491.1431" y2="491.1431"/><text fill="#000000" font-family="Verdana" font-size="13" lengthAdjust="spacing" textLength="122" x="912.5" y="486.4136">byte[] imageBytes</text><line style="stroke:#000000;stroke-width:1.0;" x1="895.5" x2="937.5" y1="520.9424" y2="520.9424"/><line style="stroke:#000000;stroke-width:1.0;" x1="937.5" x2="937.5" y1="520.9424" y2="533.9424"/><line style="stroke:#000000;stroke-width:1.0;" x1="896.5" x2="937.5" y1="533.9424" y2="533.9424"/><polygon fill="#000000" points="906.5,529.9424,896.5,533.9424,906.5,537.9424,902.5,533.9424" style="stroke:#000000;stroke-width:1.0;"/><text fill="#000000" font-family="Verdana" font-size="13" lengthAdjust="spacing" textLength="187" x="902.5" y="516.2129">Base64.encode(imageBytes)</text><polygon fill="#000000" points="634.5,559.7417,624.5,563.7417,634.5,567.7417,630.5,563.7417" style="stroke:#000000;stroke-width:1.0;"/><line style="stroke:#000000;stroke-width:1.0;stroke-dasharray:2.0,2.0;" x1="628.5" x2="889.5" y1="563.7417" y2="563.7417"/><text fill="#000000" font-family="Verdana" font-size="13" lengthAdjust="spacing" textLength="122" x="640.5" y="559.0122">String base64Data</text><polygon fill="#000000" points="403.5,636.939,393.5,640.939,403.5,644.939,399.5,640.939" style="stroke:#000000;stroke-width:1.0;"/><line style="stroke:#000000;stroke-width:1.0;stroke-dasharray:2.0,2.0;" x1="397.5" x2="617.5" y1="640.939" y2="640.939"/><text fill="#000000" font-family="Verdana" font-size="13" lengthAdjust="spacing" textLength="101" x="409.5" y="588.8115">JSON Response</text><text fill="#000000" font-family="Verdana" font-size="13" lengthAdjust="spacing" textLength="114" x="409.5" y="604.6108">{"success": true,</text><text fill="#000000" font-family="Verdana" font-size="13" lengthAdjust="spacing" textLength="103" x="414.5" y="620.4102">"format": "png",</text><text fill="#000000" font-family="Verdana" font-size="13" lengthAdjust="spacing" textLength="189" x="414.5" y="636.2095">"base64Data": "iVBORw0..."}</text><line style="stroke:#000000;stroke-width:1.0;" x1="392.5" x2="434.5" y1="670.7383" y2="670.7383"/><line style="stroke:#000000;stroke-width:1.0;" x1="434.5" x2="434.5" y1="670.7383" y2="683.7383"/><line style="stroke:#000000;stroke-width:1.0;" x1="393.5" x2="434.5" y1="683.7383" y2="683.7383"/><polygon fill="#000000" points="403.5,679.7383,393.5,683.7383,403.5,687.7383,399.5,683.7383" style="stroke:#000000;stroke-width:1.0;"/><text fill="#000000" font-family="Verdana" font-size="13" lengthAdjust="spacing" textLength="93" x="399.5" y="666.0088">&#26684;&#24335;&#21270;MCP&#21709;&#24212;</text><polygon fill="#000000" points="69.5,741.1362,59.5,745.1362,69.5,749.1362,65.5,745.1362" style="stroke:#000000;stroke-width:1.0;"/><line style="stroke:#000000;stroke-width:1.0;stroke-dasharray:2.0,2.0;" x1="63.5" x2="386.5" y1="745.1362" y2="745.1362"/><text fill="#000000" font-family="Verdana" font-size="13" lengthAdjust="spacing" textLength="95" x="75.5" y="708.8081">MCP Response</text><text fill="#000000" font-family="Verdana" font-size="13" lengthAdjust="spacing" textLength="188" x="75.5" y="724.6074">{"content": [{"type": "text",</text><text fill="#000000" font-family="Verdana" font-size="13" lengthAdjust="spacing" textLength="140" x="80.5" y="740.4067">"text": "JSON&#32467;&#26524;"}]}</text><rect fill="#FFFFFF" height="3" style="stroke:#FFFFFF;stroke-width:1.0;" width="1332.5" x="5" y="774.0359"/><line style="stroke:#000000;stroke-width:0.5;" x1="5" x2="1337.5" y1="774.0359" y2="774.0359"/><line style="stroke:#000000;stroke-width:0.5;" x1="5" x2="1337.5" y1="777.0359" y2="777.0359"/><rect fill="#FFFFFF" height="23.7993" style="stroke:#000000;stroke-width:1.0;" width="190" x="576.25" y="763.1362"/><text fill="#000000" font-family="Verdana" font-size="13" font-weight="bold" lengthAdjust="spacing" textLength="172" x="582.25" y="780.2061">&#26041;&#24335;&#20108;&#65306;&#30452;&#25509;&#20108;&#36827;&#21046;&#19979;&#36733; API</text><polygon fill="#000000" points="601.5,830.5342,611.5,834.5342,601.5,838.5342,605.5,834.5342" style="stroke:#000000;stroke-width:1.0;"/><line style="stroke:#000000;stroke-width:1.0;" x1="58.5" x2="607.5" y1="834.5342" y2="834.5342"/><text fill="#000000" font-family="Verdana" font-size="13" lengthAdjust="spacing" textLength="201" x="65.5" y="814.0054">POST /api/plantuml/image/png</text><text fill="#000000" font-family="Verdana" font-size="13" lengthAdjust="spacing" textLength="94" x="65.5" y="829.8047">{"code": "..."}</text><polygon fill="#000000" points="873.5,860.3335,883.5,864.3335,873.5,868.3335,877.5,864.3335" style="stroke:#000000;stroke-width:1.0;"/><line style="stroke:#000000;stroke-width:1.0;" x1="623.5" x2="879.5" y1="864.3335" y2="864.3335"/><text fill="#000000" font-family="Verdana" font-size="13" lengthAdjust="spacing" textLength="196" x="630.5" y="859.604">generateImage(code, format)</text><polygon fill="#000000" points="1133.5,890.1328,1143.5,894.1328,1133.5,898.1328,1137.5,894.1328" style="stroke:#000000;stroke-width:1.0;"/><line style="stroke:#000000;stroke-width:1.0;" x1="895.5" x2="1139.5" y1="894.1328" y2="894.1328"/><text fill="#000000" font-family="Verdana" font-size="13" lengthAdjust="spacing" textLength="231" x="902.5" y="889.4033">SourceStringReader.outputImage()</text><polygon fill="#000000" points="1289.5,919.9321,1299.5,923.9321,1289.5,927.9321,1293.5,923.9321" style="stroke:#000000;stroke-width:1.0;"/><line style="stroke:#000000;stroke-width:1.0;" x1="1155.5" x2="1295.5" y1="923.9321" y2="923.9321"/><text fill="#000000" font-family="Verdana" font-size="13" lengthAdjust="spacing" textLength="117" x="1162.5" y="919.2026">&#29983;&#25104;&#20108;&#36827;&#21046;&#22270;&#29255;&#25968;&#25454;</text><polygon fill="#000000" points="1161.5,949.7314,1151.5,953.7314,1161.5,957.7314,1157.5,953.7314" style="stroke:#000000;stroke-width:1.0;"/><line style="stroke:#000000;stroke-width:1.0;stroke-dasharray:2.0,2.0;" x1="1155.5" x2="1300.5" y1="953.7314" y2="953.7314"/><text fill="#000000" font-family="Verdana" font-size="13" lengthAdjust="spacing" textLength="122" x="1167.5" y="949.002">byte[] imageBytes</text><polygon fill="#000000" points="901.5,979.5308,891.5,983.5308,901.5,987.5308,897.5,983.5308" style="stroke:#000000;stroke-width:1.0;"/><line style="stroke:#000000;stroke-width:1.0;stroke-dasharray:2.0,2.0;" x1="895.5" x2="1149.5" y1="983.5308" y2="983.5308"/><text fill="#000000" font-family="Verdana" font-size="13" lengthAdjust="spacing" textLength="122" x="907.5" y="978.8013">byte[] imageBytes</text><polygon fill="#000000" points="634.5,1009.3301,624.5,1013.3301,634.5,1017.3301,630.5,1013.3301" style="stroke:#000000;stroke-width:1.0;"/><line style="stroke:#000000;stroke-width:1.0;stroke-dasharray:2.0,2.0;" x1="628.5" x2="889.5" y1="1013.3301" y2="1013.3301"/><text fill="#000000" font-family="Verdana" font-size="13" lengthAdjust="spacing" textLength="122" x="640.5" y="1008.6006">byte[] imageBytes</text><line style="stroke:#000000;stroke-width:1.0;" x1="623.5" x2="665.5" y1="1058.9287" y2="1058.9287"/><line style="stroke:#000000;stroke-width:1.0;" x1="665.5" x2="665.5" y1="1058.9287" y2="1071.9287"/><line style="stroke:#000000;stroke-width:1.0;" x1="624.5" x2="665.5" y1="1071.9287" y2="1071.9287"/><polygon fill="#000000" points="634.5,1067.9287,624.5,1071.9287,634.5,1075.9287,630.5,1071.9287" style="stroke:#000000;stroke-width:1.0;"/><text fill="#000000" font-family="Verdana" font-size="13" lengthAdjust="spacing" textLength="198" x="630.5" y="1038.3999">&#35774;&#32622;Content-Type: image/png</text><text fill="#000000" font-family="Verdana" font-size="13" lengthAdjust="spacing" textLength="218" x="630.5" y="1054.1992">Content-Disposition: attachment</text><polygon fill="#000000" points="69.5,1113.5273,59.5,1117.5273,69.5,1121.5273,65.5,1117.5273" style="stroke:#000000;stroke-width:1.0;"/><line style="stroke:#000000;stroke-width:1.0;stroke-dasharray:2.0,2.0;" x1="63.5" x2="617.5" y1="1117.5273" y2="1117.5273"/><text fill="#000000" font-family="Verdana" font-size="13" lengthAdjust="spacing" textLength="91" x="75.5" y="1096.9985">&#30452;&#25509;&#20108;&#36827;&#21046;&#21709;&#24212;</text><text fill="#000000" font-family="Verdana" font-size="13" lengthAdjust="spacing" textLength="103" x="75.5" y="1112.7979">[PNG&#20108;&#36827;&#21046;&#25968;&#25454;]</text><path d="M63,1130.5273 L63,1345.5273 L213,1345.5273 L213,1140.5273 L203,1130.5273 L63,1130.5273 " fill="#FFFFFF" style="stroke:#000000;stroke-width:1.0;"/><path d="M203,1130.5273 L203,1140.5273 L213,1140.5273 L203,1130.5273 " fill="#FFFFFF" style="stroke:#000000;stroke-width:1.0;"/><text fill="#000000" font-family="Verdana" font-size="13" font-weight="bold" lengthAdjust="spacing" textLength="78" x="69" y="1148.5972">&#20004;&#31181;&#26041;&#24335;&#23545;&#27604;</text><text fill="#000000" font-family="Verdana" font-size="13" lengthAdjust="spacing" textLength="6" x="147" y="1148.5972">:</text><text fill="#000000" font-family="Verdana" font-size="13" lengthAdjust="spacing" textLength="5" x="69" y="1164.3965">&#160;</text><text fill="#000000" font-family="Verdana" font-size="13" font-weight="bold" lengthAdjust="spacing" textLength="95" x="69" y="1180.1958">Base64 JSON</text><text fill="#000000" font-family="Verdana" font-size="13" lengthAdjust="spacing" textLength="6" x="164" y="1180.1958">:</text><text fill="#000000" font-family="Verdana" font-size="13" lengthAdjust="spacing" textLength="104" x="69" y="1195.9951">&#8226; &#36866;&#21512;AI&#20195;&#29702;&#38598;&#25104;</text><text fill="#000000" font-family="Verdana" font-size="13" lengthAdjust="spacing" textLength="103" x="69" y="1211.7944">&#8226; &#32467;&#26500;&#21270;&#21709;&#24212;&#25968;&#25454;</text><text fill="#000000" font-family="Verdana" font-size="13" lengthAdjust="spacing" textLength="129" x="69" y="1227.5938">&#8226; &#20256;&#36755;&#24320;&#38144;&#22823;(~33%)</text><text fill="#000000" font-family="Verdana" font-size="13" lengthAdjust="spacing" textLength="103" x="69" y="1243.3931">&#8226; &#38656;&#35201;&#23458;&#25143;&#31471;&#35299;&#30721;</text><text fill="#000000" font-family="Verdana" font-size="13" lengthAdjust="spacing" textLength="5" x="69" y="1259.1924">&#160;</text><text fill="#000000" font-family="Verdana" font-size="13" font-weight="bold" lengthAdjust="spacing" textLength="65" x="69" y="1274.9917">&#30452;&#25509;&#20108;&#36827;&#21046;</text><text fill="#000000" font-family="Verdana" font-size="13" lengthAdjust="spacing" textLength="6" x="134" y="1274.9917">:</text><text fill="#000000" font-family="Verdana" font-size="13" lengthAdjust="spacing" textLength="90" x="69" y="1290.791">&#8226; &#36866;&#21512;&#25991;&#20214;&#19979;&#36733;</text><text fill="#000000" font-family="Verdana" font-size="13" lengthAdjust="spacing" textLength="77" x="69" y="1306.5903">&#8226; &#20256;&#36755;&#25928;&#29575;&#39640;</text><text fill="#000000" font-family="Verdana" font-size="13" lengthAdjust="spacing" textLength="103" x="69" y="1322.3896">&#8226; &#27983;&#35272;&#22120;&#30452;&#25509;&#22788;&#29702;</text><text fill="#000000" font-family="Verdana" font-size="13" lengthAdjust="spacing" textLength="90" x="69" y="1338.189">&#8226; &#26080;&#38656;&#39069;&#22806;&#22788;&#29702;</text><!--SRC=[vLLRJnj757wVNp7TgX8Wi2kbwiDAH0AIjaHDi33D2_0mh0SpYZrhxOvp4Q8ob0GtuIPXwCMKKa8AQYH8fIOGCEI_L9xTzLF_GkUoQw-1L7sFBArNvtnpRjztTZvYKpYFOI6720NkFK8Bo45vE86iUrd7BjBCW9sp7VZn5pVbBuQOGZJpm26COGedKSx50332SXYcSeYoRsv_3NdrtFz-8NXNuTKjx_Mil__CsthZRSqBEm38OYAiqJTOFttkhpv9yeCThtpalpmq87BXG8vWoe38n8X52Y8WD6uFfBpD9VxqD_xJlW89GpkYcVchaP4Kx4iDAfZulneMHljpJi7IsBbFB7mrbDVMlRLbXRj9iuHYa44CJI0NGoDiytoDBvmen52H5OeCWDvUw6syvRML-d7fdzhF_GBz-MVmLdheZgm9zlO2eFk4FTTbCwPyyACN_F5HyEexlx8_HgSDYlBOCA5Ha9KKyxcUBAROGGmRtMCK6iZ95lCYX2imquPbPnGuaKWOtT2Oj9qyOkeqpHepCtBevBuugqO7nAEPcQ_CUUkl6dyi1eUpOxIZxzPTcBQ4Cb1d4oTgDc5gA3q2awX0ab51oQWWMUr_5z3ABpa1SWWYRZXu4qQ1zA06yoYBEsJ0RgZZTBREHsI1y4N6qSIOC6qN7GkdcKDeTXYZ37OIjc94Hun52Qa4-b_6qDIPqA_ywfLNwoUBmRigBx_H58i1UKi7G6DWJopbn2E6HySXaGdwnRiBClYzMU8jNpuOQwY9qWD9O2gdqT42TyRwZmZIVSC9TUI646cybEROrEWZxfKYXx5RiAchM7IBbeLTAIdc5B7IMJkJojHA8StaRl_Gy8DF9V4pyPIAwRZIlEsQM0c-k275lhR4JogXNm3qEgWzQ2l8igdupCZqezC6UrHG6cFu8TELg3TXaOtufslUrgOnCzvMXT9xQnzF5iK- -jM_lEKNJOxhny-2ixChDlDzkbSy9CKuBWh__-hy0rNuLNgy9EFBnw8nAdTmSEwV7GneMVIC24MOCCP7vBX1X8PSmeXDJOWOGzQK_5Ysz1y9xe8Mj2x7w6ZgpfTDenxE-2LnKrkyEIGxnQ0z6TrS47PrrOzt_RqbBJb- -DOxh7HrcSAZdB7RG5l_Bkt0HccEhvQZEx5HVI8e2brAr_DYRNHj8LFQLwzjo-kdLcfKIdnth-FRQzS-wOn2RfQ2tsURjskmzzpVdesAkD3snKAyZONwQRWORQcyzRA_lD1u-MDezLwl17jbSI_hW7ntNfGV-NxO5ZKqTdxXknkX0zCCb5C3_m80]--></g></svg>